<svg height="511pt" viewBox="0,0,24,24" width="511pt" xmlns="http://www.w3.org/2000/svg"><path d="m498.839844 403.695312-75.003906-75.003906c-5.855469-5.855468-15.355469-5.855468-21.210938 0l-10.609375 10.609375-20.910156-20.910156c28.382812-37.898437 27.792969-90.765625-1.761719-128.046875l22.382812-111.898438c.878907-4.40625-.261718-8.976562-3.109374-12.453124-2.847657-3.472657-7.109376-5.488282-11.601563-5.488282h-257.714844c-3.511719-17.5625-6.773437-33.882812-9.589843-47.945312-1.402344-7.011719-7.558594-12.058594-14.707032-12.058594h-80.003906c-8.285156 0-15 6.714844-15 15s6.714844 15 15 15h67.707031c35.421875 177.117188 32.574219 162.886719 46.804688 233.964844 1.289062 6.445312 3.953125 12.339844 7.636719 17.417968-9.28125 8.25-15.144532 20.265626-15.144532 33.628907 0 24.816406 20.1875 45.003906 45.003906 45.003906 20.722657 0 38.207032-14.085937 43.414063-33.179687.765625.816406 1.542969 1.625 2.339844 2.421874 37.09375 37.09375 95.75 40.832032 137.132812 9.847657l20.90625 20.910156-10.605469 10.605469c-5.859374 5.859375-5.859374 15.355468 0 21.214844l75.003907 75.003906c17.542969 17.542968 46.09375 17.542968 63.640625 0 17.546875-17.546875 17.546875-46.097656 0-63.644532zm-331.832032-73.183593c-8.273437 0-15-6.726563-15-15 0-8.269531 6.726563-15 15-15 8.269532 0 15 6.730469 15 15 0 8.273437-6.730468 15-15 15zm16.117188-60h-9.511719c-7.238281 0-13.277343-4.910157-14.683593-11.9375-1.113282-5.570313-2.328126-11.632813-3.617188-18.074219h27.8125c-1.421875 9.945312-1.421875 20.066406 0 30.011719zm9.015625-60.003907h-42.832031c-7.320313-36.589843-15.984375-79.910156-24.007813-120.003906h233.417969l-15.289062 76.441406c-40.605469-25.875-95.246094-21.109374-130.667969 14.316407-8.742188 8.742187-15.613281 18.660156-20.621094 29.246093zm147.90625 98.039063c-29.242187 29.242187-76.828125 29.242187-106.070313 0-29.242187-29.246094-29.242187-76.828125 0-106.070313 29.242188-29.242187 76.824219-29.246093 106.070313 0 29.242187 29.242188 29.242187 76.824219 0 106.070313zm137.578125 137.578125c-5.847656 5.847656-15.363281 5.847656-21.214844 0l-64.394531-64.398438 21.214844-21.210937 64.394531 64.394531c5.851562 5.847656 5.851562 15.367188 0 21.214844zm0 0"/></svg>